# xmcd
#
# Track frame offsets:
#	150
#	17845
#	41993
#	59072
#	81878
#	100680
#	121783
#	139210
#	158394
#	178696
#	196246
#	216783
#	237665
#
# Disc length: 3419 seconds
# Revision: 0
# Processed by: cddbd v1.5.2PL0 Copyright (c) Steve Scherf et al.
# Submitted via: dBpowerAMP V12.0
#
DISCID=b40d590d
DTITLE=Buzz 'n' The Jester - Red Town
DYEAR=2012
DGENRE=Blues Rock
TTITLE0=Little Bitch Road
TTITLE1=Sweet Dreams
TTITLE2=Betrayal
TTITLE3=She Took It All
TTITLE4=Wild Fire
TTITLE5=Red Town
TTITLE6=Arms Of Love
TTITLE7=I Found Me
TTITLE8=Tonight
TTITLE9=Sending Out A Message
TTITLE10=Save Me
TTITLE11=Second Chance
TTITLE12=Nothing
EXTD=
EXTT0=
EXTT1=
EXTT2=
EXTT3=
EXTT4=
EXTT5=
EXTT6=
EXTT7=
EXTT8=
EXTT9=
EXTT10=
EXTT11=
EXTT12=
PLAYORDER=
